HIERARCHY
ROOT Hips
{
  OFFSET 5.80788e-005 67.184 3.4734
  CHANNELS 6 Xposition Yposition Zposition Zrotation Xrotation Yrotation
  JOINT Chest
  {
    OFFSET 0 8.7983 -4.7612
    CHANNELS 3 Zrotation Xrotation Yrotation
    JOINT Chest2
    {
      OFFSET 0 8.0291 0.4195
      CHANNELS 3 Zrotation Xrotation Yrotation
      JOINT Chest3
      {
        OFFSET 0 9.9351 -2.2114
        CHANNELS 3 Zrotation Xrotation Yrotation
        JOINT Neck
        {
          OFFSET 0 22.3885 -0.4656
          CHANNELS 3 Zrotation Xrotation Yrotation
          JOINT Head
          {
            OFFSET -0.0001 12.643 3.4389
            CHANNELS 3 Zrotation Xrotation Yrotation
            End Site
            {
              OFFSET 0.0001 17.6655 0.5274
            }
          }
        }
        JOINT LeftCollar
        {
          OFFSET 2.2603 21.606 7.4023
          CHANNELS 3 Zrotation Xrotation Yrotation
          JOINT LeftShoulder
          {
            OFFSET 13.5163 -1.1332 -5.0146
            CHANNELS 3 Zrotation Xrotation Yrotation
            JOINT LeftElbow
            {
              OFFSET -0.0995 -28.05 -0.2431
              CHANNELS 3 Zrotation Xrotation Yrotation
              JOINT LeftWrist
              {
                OFFSET 0.0679 -23.3996 -0.1402
                CHANNELS 3 Zrotation Xrotation Yrotation
                JOINT LeftFinger1
                {
                  OFFSET 0.7932 -9.069 2.5189
                  CHANNELS 3 Zrotation Xrotation Yrotation
                  JOINT LeftFinger11
                  {
                    OFFSET -0.8272 -3.3923 0.5977
                    CHANNELS 3 Zrotation Xrotation Yrotation
                    JOINT LeftFinger12
                    {
                      OFFSET -0.5649 -2.3158 0.4082
                      CHANNELS 3 Zrotation Xrotation Yrotation
                      End Site
                      {
                        OFFSET -0.4919 -1.6479 0.2673
                      }
                    }
                  }
                }
                JOINT LeftFinger2
                {
                  OFFSET 0.9159 -9.2044 0.2193
                  CHANNELS 3 Zrotation Xrotation Yrotation
                  JOINT LeftFinger21
                  {
                    OFFSET 0.0117 -4.1944 -0.0248
                    CHANNELS 3 Zrotation Xrotation Yrotation
                    JOINT LeftFinger22
                    {
                      OFFSET 0.0071 -2.3249 -0.0142
                      CHANNELS 3 Zrotation Xrotation Yrotation
                      End Site
                      {
                        OFFSET -0.1475 -2.0882 0.0028
                      }
                    }
                  }
                }
                JOINT LeftFinger3
                {
                  OFFSET 0.6113 -8.7231 -2.0637
                  CHANNELS 3 Zrotation Xrotation Yrotation
                  JOINT LeftFinger31
                  {
                    OFFSET -0.1927 -3.8059 -0.2383
                    CHANNELS 3 Zrotation Xrotation Yrotation
                    JOINT LeftFinger32
                    {
                      OFFSET -0.1091 -2.1688 -0.1362
                      CHANNELS 3 Zrotation Xrotation Yrotation
                      End Site
                      {
                        OFFSET -0.2358 -1.9176 -0.0906
                      }
                    }
                  }
                }
                JOINT LeftFinger4
                {
                  OFFSET -0.6151 -8.0947 -3.5641
                  CHANNELS 3 Zrotation Xrotation Yrotation
                  JOINT LeftFinger41
                  {
                    OFFSET -0.4882 -2.341 -0.6462
                    CHANNELS 3 Zrotation Xrotation Yrotation
                    JOINT LeftFinger42
                    {
                      OFFSET -0.3575 -1.7167 -0.4742
                      CHANNELS 3 Zrotation Xrotation Yrotation
                      End Site
                      {
                        OFFSET -0.4187 -1.5237 -0.3496
                      }
                    }
                  }
                }
                JOINT LeftFinger0
                {
                  OFFSET -1.42 -1.8761 1.4223
                  CHANNELS 3 Zrotation Xrotation Yrotation
                  JOINT LeftFinger01
                  {
                    OFFSET -1.1471 -3.4929 2.6334
                    CHANNELS 3 Zrotation Xrotation Yrotation
                    JOINT LeftFinger02
                    {
                      OFFSET -0.823 -2.3 1.6571
                      CHANNELS 3 Zrotation Xrotation Yrotation
                      End Site
                      {
                        OFFSET -0.5822 -1.6914 1.1582
                      }
                    }
                  }
                }
              }
            }
          }
        }
        JOINT RightCollar
        {
          OFFSET -2.2603 21.606 7.4023
          CHANNELS 3 Zrotation Xrotation Yrotation
          JOINT RightShoulder
          {
            OFFSET -13.5187 -1.1334 -5.0155
            CHANNELS 3 Zrotation Xrotation Yrotation
            JOINT RightElbow
            {
              OFFSET 0.0994 -28.0499 -0.2431
              CHANNELS 3 Zrotation Xrotation Yrotation
              JOINT RightWrist
              {
                OFFSET -0.0679 -23.3996 -0.1402
                CHANNELS 3 Zrotation Xrotation Yrotation
                JOINT RightFinger1
                {
                  OFFSET -0.7932 -9.0691 2.5189
                  CHANNELS 3 Zrotation Xrotation Yrotation
                  JOINT RightFinger11
                  {
                    OFFSET 0.8272 -3.3923 0.5977
                    CHANNELS 3 Zrotation Xrotation Yrotation
                    JOINT RightFinger12
                    {
                      OFFSET 0.565 -2.3158 0.4082
                      CHANNELS 3 Zrotation Xrotation Yrotation
                      End Site
                      {
                        OFFSET 0.4919 -1.6479 0.2673
                      }
                    }
                  }
                }
                JOINT RightFinger2
                {
                  OFFSET -0.916 -9.2044 0.2193
                  CHANNELS 3 Zrotation Xrotation Yrotation
                  JOINT RightFinger21
                  {
                    OFFSET -0.0117 -4.1944 -0.0248
                    CHANNELS 3 Zrotation Xrotation Yrotation
                    JOINT RightFinger22
                    {
                      OFFSET -0.0071 -2.3249 -0.0142
                      CHANNELS 3 Zrotation Xrotation Yrotation
                      End Site
                      {
                        OFFSET 0.1475 -2.0882 0.0028
                      }
                    }
                  }
                }
                JOINT RightFinger3
                {
                  OFFSET -0.6113 -8.7231 -2.0637
                  CHANNELS 3 Zrotation Xrotation Yrotation
                  JOINT RightFinger31
                  {
                    OFFSET 0.1927 -3.8059 -0.2383
                    CHANNELS 3 Zrotation Xrotation Yrotation
                    JOINT RightFinger32
                    {
                      OFFSET 0.1091 -2.1688 -0.1362
                      CHANNELS 3 Zrotation Xrotation Yrotation
                      End Site
                      {
                        OFFSET 0.2358 -1.9176 -0.0906
                      }
                    }
                  }
                }
                JOINT RightFinger4
                {
                  OFFSET 0.6151 -8.0947 -3.564
                  CHANNELS 3 Zrotation Xrotation Yrotation
                  JOINT RightFinger41
                  {
                    OFFSET 0.4882 -2.341 -0.6462
                    CHANNELS 3 Zrotation Xrotation Yrotation
                    JOINT RightFinger42
                    {
                      OFFSET 0.3574 -1.7166 -0.4742
                      CHANNELS 3 Zrotation Xrotation Yrotation
                      End Site
                      {
                        OFFSET 0.4187 -1.5237 -0.3496
                      }
                    }
                  }
                }
                JOINT RightFinger0
                {
                  OFFSET 1.4199 -1.8761 1.4221
                  CHANNELS 3 Zrotation Xrotation Yrotation
                  JOINT RightFinger01
                  {
                    OFFSET 1.1472 -3.4929 2.6336
                    CHANNELS 3 Zrotation Xrotation Yrotation
                    JOINT RightFinger02
                    {
                      OFFSET 0.8229 -2.3 1.6571
                      CHANNELS 3 Zrotation Xrotation Yrotation
                      End Site
                      {
                        OFFSET 0.5822 -1.6914 1.1582
                      }
                    }
                  }
                }
              }
            }
          }
        }
      }
    }
  }
  JOINT RightHip
  {
    OFFSET -9.412 3.9771 -0.7758
    CHANNELS 3 Zrotation Xrotation Yrotation
    JOINT RightKnee
    {
      OFFSET -0.7531 -40.938 0
      CHANNELS 3 Zrotation Xrotation Yrotation
      JOINT RightAnkle
      {
        OFFSET 0 -40.1986 0
        CHANNELS 3 Zrotation Xrotation Yrotation
        JOINT RightToe
        {
          OFFSET 0 -4.4182 9.239
          CHANNELS 3 Zrotation Xrotation Yrotation
          End Site
          {
            OFFSET 0 0 6.1981
          }
        }
      }
    }
  }
  JOINT LeftHip
  {
    OFFSET 9.4119 3.9773 -0.7758
    CHANNELS 3 Zrotation Xrotation Yrotation
    JOINT LeftKnee
    {
      OFFSET 0.7532 -40.9383 0
      CHANNELS 3 Zrotation Xrotation Yrotation
      JOINT LeftAnkle
      {
        OFFSET 0 -40.1986 0
        CHANNELS 3 Zrotation Xrotation Yrotation
        JOINT LeftToe
        {
          OFFSET 0 -4.4182 9.239
          CHANNELS 3 Zrotation Xrotation Yrotation
          End Site
          {
            OFFSET 0 0 6.1981
          }
        }
      }
    }
  }
}
MOTION
Frames:	6
Frame Time:	0.0333333
-6.94883 13.8913 38.6553 180 84.5029 -180 -0.126966 -1.95729 -0.415521 -0.268376 -3.9136 -0.836118 -0.268376 -3.91357 -0.836119 -4.55895e-006 -36.2275 -5.96271e-006 -8.57184e-008 -15.0017 1.54873e-007 -0.759419 -13.9666 -38.8625 95.1437 -5.92783 9.64915 40.8323 -40.7424 24.0424 14.3395 -0.943886 11.6945 -3.18055e-015 -1.19271e-015 2.38542e-015 -3.18055e-015 3.97569e-016 4.27387e-015 -6.36111e-015 1.59028e-015 -1.39149e-015 -3.18055e-015 -1.19271e-015 2.38542e-015 -0.0128885 0.00232754 8.78267e-005 6.36111e-015 -7.95139e-016 -3.67752e-015 -3.18055e-015 -1.19271e-015 2.38542e-015 -0.0159849 0.00297722 0.000857866 -4.13804e-033 7.95139e-016 2.98177e-016 -3.18055e-015 -1.19271e-015 2.38542e-015 -0.0126031 0.00313632 0.00284154 9.69755e-006 -1.11203e-005 -1.53955e-005 -3.18055e-015 -1.19271e-015 2.38542e-015 -3.18055e-015 3.97569e-016 4.27387e-015 -6.36111e-015 1.59028e-015 -1.39149e-015 6.40021 0.323699 -0.727862 13.302 42.8094 -1.60265 6.23141 -40.1801 -2.03382 -7.15704 -19.2027 -58.5063 -4.6346e-031 4.77083e-015 5.56597e-015 3.18055e-015 2.38542e-015 6.75868e-015 -5.29669e-031 4.77083e-015 6.36111e-015 -4.6346e-031 4.77083e-015 5.56597e-015 0.0129486 0.00231227 -8.0399e-005 -3.18055e-015 1.59028e-015 1.19271e-015 -4.6346e-031 4.77083e-015 5.56597e-015 0.0163156 0.00302715 -0.000869527 1.27222e-014 -1.59028e-015 -1.19271e-015 -4.6346e-031 4.77083e-015 5.56597e-015 0.0145786 0.00367933 -0.00326439 -3.18055e-015 -3.97569e-015 -7.35503e-015 -4.6346e-031 4.77083e-015 5.56597e-015 3.18055e-015 2.38542e-015 6.75868e-015 -5.29669e-031 4.77083e-015 6.36111e-015 -98.2899 -32.9495 -105.107 -65.4581 81.1777 74.1952 -40.4802 26.8121 66.3419 4.03908e-007 4.77837e-006 4.08036e-007 98.3055 -33.2619 104.846 65.3419 81.2149 -74.0921 40.0756 26.9805 -66.0778 7.93746e-007 4.68614e-006 -1.61089e-006 
-6.94882 14.051 38.6323 -180 84.0016 180 -0.125581 -2.16175 -0.416651 -0.267188 -4.32244 -0.838942 -0.267188 -4.32244 -0.838942 -1.63179e-005 -35.9523 -1.95954e-005 2.44685e-007 -15.0017 9.51244e-008 -1.03111 -13.6507 -38.817 95.1436 -5.92786 9.64919 41.0658 -40.9021 24.1923 14.0685 -0.931042 11.5097 -3.18055e-015 -1.59028e-015 3.08116e-015 2.20695e-032 -7.95139e-016 1.59028e-015 3.18055e-015 -7.95139e-016 -1.98785e-016 -3.18055e-015 -1.59028e-015 3.08116e-015 -0.0127542 0.00230693 8.33919e-005 2.20695e-032 -7.95139e-016 1.59028e-015 -3.18055e-015 -1.59028e-015 3.08116e-015 -0.0160203 0.00298758 0.000859249 -3.18055e-015 3.97569e-016 2.98177e-016 -3.18055e-015 -1.59028e-015 3.08116e-015 -0.0125772 0.00313862 0.00283288 -3.18055e-015 -7.95139e-016 3.37934e-015 -3.18055e-015 -1.59028e-015 3.08116e-015 2.20695e-032 -7.95139e-016 1.59028e-015 3.18055e-015 -7.95139e-016 -1.98785e-016 5.84016 0.879359 -0.893453 13.6084 42.3641 -0.860503 5.85481 -39.147 -1.47899 -7.97093 -19.5967 -58.5506 -3.18055e-015 -4.37326e-015 -3.97569e-016 -3.18055e-015 -1.59028e-015 -1.19271e-015 -6.36111e-015 1.19271e-015 4.57205e-015 -3.18055e-015 -4.37326e-015 -3.97569e-016 0.0129284 0.00232666 -9.41319e-005 -6.36111e-015 3.97569e-016 1.98785e-015 -3.18055e-015 -4.37326e-015 -3.97569e-016 0.0163181 0.00304094 -0.000879282 -5.10358e-032 -3.97569e-016 -7.35503e-015 -3.18055e-015 -4.37326e-015 -3.97569e-016 0.0146297 0.00370546 -0.00328608 -3.18055e-015 2.78299e-015 -1.78906e-015 -3.18055e-015 -4.37326e-015 -3.97569e-016 -3.18055e-015 -1.59028e-015 -1.19271e-015 -6.36111e-015 1.19271e-015 4.57205e-015 -98.7126 -33.4003 -105.348 -65.5853 81.1865 74.3211 -39.8859 27.1845 65.9017 2.97401e-007 -6.44533e-009 3.04387e-007 98.729 -33.6975 105.101 65.4687 81.2237 -74.2174 39.5 27.343 -65.6499 -5.95293e-007 -7.11012e-008 -6.08409e-007 
-6.94881 14.2108 38.6098 -180 83.5004 -180 -0.124193 -2.36602 -0.417747 -0.266005 -4.73103 -0.84171 -0.266004 -4.73104 -0.841709 -2.14906e-005 -35.6772 -2.61088e-005 -3.73721e-007 -15.0017 -1.47649e-007 -1.30269 -13.3349 -38.77 95.1436 -5.92787 9.64918 41.3006 -41.0613 24.3435 13.7974 -0.917305 11.3249 -6.36111e-015 3.97569e-016 -3.67752e-015 -3.25766e-006 8.00007e-008 -1.16792e-007 -3.18055e-015 3.97569e-016 -2.08724e-015 -6.36111e-015 3.97569e-016 -3.67752e-015 -0.0128445 0.00231982 8.69485e-005 6.36111e-015 7.95139e-016 1.39149e-015 -6.36111e-015 3.97569e-016 -3.67752e-015 -0.0160424 0.00298678 0.000856139 -3.18055e-015 -3.97569e-016 -3.97569e-015 -6.36111e-015 3.97569e-016 -3.67752e-015 -0.0124793 0.00309768 0.00280288 3.18055e-015 0 1.98785e-016 -6.36111e-015 3.97569e-016 -3.67752e-015 -3.25766e-006 8.00007e-008 -1.16792e-007 -3.18055e-015 3.97569e-016 -2.08724e-015 5.28171 1.4365 -1.05361 13.9203 41.9219 -0.120566 5.47114 -38.1173 -0.92382 -8.78699 -19.9899 -58.601 -3.18055e-015 1.19271e-015 -6.75868e-015 5.51738e-032 1.59028e-015 -1.98785e-015 -8.07427e-007 1.07355e-006 2.56006e-006 -3.18055e-015 1.19271e-015 -6.75868e-015 0.0129755 0.00231264 -8.37958e-005 2.73725e-006 2.55359e-006 1.43612e-006 -3.18055e-015 1.19271e-015 -6.75868e-015 0.0163272 0.00302979 -0.000868266 6.36111e-015 8.74653e-015 1.78906e-014 -3.18055e-015 1.19271e-015 -6.75868e-015 0.0146176 0.00369038 -0.00327314 -4.98733e-006 -5.4346e-006 9.8026e-006 -3.18055e-015 1.19271e-015 -6.75868e-015 5.51738e-032 1.59028e-015 -1.98785e-015 -8.07427e-007 1.07355e-006 2.56006e-006 -99.1401 -33.85 -105.593 -65.7126 81.1953 74.4473 -39.2863 27.5529 65.4555 9.70031e-007 -7.1359e-006 -2.15238e-007 99.1574 -34.1319 105.361 65.598 81.2327 -74.3455 38.9193 27.7016 -65.2163 -3.00103e-007 3.22906e-008 2.9893e-007 
-6.94879 14.3709 38.5878 -180 82.9993 -180 -0.122802 -2.57012 -0.418817 -0.264829 -5.1393 -0.844432 -0.26483 -5.13929 -0.844432 4.33438e-006 -35.4018 5.16167e-006 8.80006e-008 -15.0017 5.74694e-008 -1.57415 -13.0192 -38.7215 95.1436 -5.92786 9.64918 41.5362 -41.22 24.4959 13.5265 -0.902675 11.1403 6.36111e-015 7.95139e-016 1.19271e-015 3.18055e-015 1.59028e-015 -2.98177e-016 3.18055e-015 3.97569e-016 -4.96962e-016 6.36111e-015 7.95139e-016 1.19271e-015 -0.01289 0.00233433 7.46029e-005 3.18055e-015 1.98785e-015 1.39149e-015 6.36111e-015 7.95139e-016 1.19271e-015 -0.0161026 0.00301673 0.00085825 -1.01633e-006 -2.0422e-006 7.85894e-007 6.36111e-015 7.95139e-016 1.19271e-015 -0.012609 0.00313199 0.00284014 3.18055e-015 -1.59028e-015 3.97569e-015 6.36111e-015 7.95139e-016 1.19271e-015 3.18055e-015 1.59028e-015 -2.98177e-016 3.18055e-015 3.97569e-016 -4.96962e-016 4.72484 1.99516 -1.2083 14.2374 41.4829 0.617126 5.08058 -37.0913 -0.368024 -9.60514 -20.3823 -58.6573 -6.99269e-007 5.47929e-006 -4.87714e-006 6.99269e-007 -5.47929e-006 4.87714e-006 3.18055e-015 -1.27222e-014 1.39149e-015 -6.99269e-007 5.47929e-006 -4.87714e-006 0.0129667 0.00231169 -8.33032e-005 -5.59416e-006 1.84943e-008 4.66752e-006 -6.99269e-007 5.47929e-006 -4.87714e-006 0.0163303 0.00303512 -0.000867832 -3.18055e-015 -3.97569e-016 -1.2921e-015 -6.99269e-007 5.47929e-006 -4.87714e-006 0.0145708 0.00368458 -0.00326241 -3.18055e-015 0 6.55989e-015 -6.99269e-007 5.47929e-006 -4.87714e-006 6.99269e-007 -5.47929e-006 4.87714e-006 3.18055e-015 -1.27222e-014 1.39149e-015 -99.5725 -34.2984 -105.845 -65.8426 81.2041 74.5762 -38.6813 27.9169 65.0033 8.36076e-007 2.44795e-006 -9.63299e-007 99.5907 -34.5648 105.627 65.7284 81.2415 -74.4748 38.3335 28.0562 -64.777 2.97351e-007 7.35304e-009 3.04644e-007 
-6.94877 14.5312 38.5664 -180 82.4982 -180 -0.121408 -2.77395 -0.419849 -0.263654 -5.54689 -0.847081 -0.263655 -5.5469 -0.847081 -8.15073e-007 -35.1267 -1.22855e-006 1.33684e-007 -15.0017 1.24682e-007 -1.84552 -12.704 -38.6716 95.1438 -5.92776 9.64919 41.7731 -41.3784 24.6496 13.2557 -0.887173 10.9557 6.36111e-015 -7.95139e-016 9.93923e-016 3.18055e-015 0 -3.97569e-016 1.24141e-032 3.97569e-016 -1.78906e-015 6.36111e-015 -7.95139e-016 9.93923e-016 -0.0127521 0.00230841 8.66306e-005 -1.51728e-032 -7.95139e-016 -1.09332e-015 6.36111e-015 -7.95139e-016 9.93923e-016 -0.0160364 0.00299537 0.000863464 3.18055e-015 -4.37326e-015 1.08338e-014 6.36111e-015 -7.95139e-016 9.93923e-016 -0.0125626 0.0031109 0.00282005 3.18055e-015 7.95139e-016 -8.94531e-016 6.36111e-015 -7.95139e-016 9.93923e-016 3.18055e-015 0 -3.97569e-016 1.24141e-032 3.97569e-016 -1.78906e-015 4.16948 2.55491 -1.35758 14.5598 41.0474 1.35256 4.68322 -36.0696 0.188436 -10.4254 -20.7737 -58.7199 6.36111e-015 4.67144e-015 -4.47266e-015 3.18055e-015 3.77691e-015 -2.73329e-015 3.1511e-006 -3.18943e-008 5.2698e-008 6.36111e-015 4.67144e-015 -4.47266e-015 0.0129886 0.0023187 -7.69855e-005 -3.18055e-015 -1.39149e-015 -3.47873e-016 6.36111e-015 4.67144e-015 -4.47266e-015 0.0163412 0.00302511 -0.000872678 6.36111e-015 -1.59028e-015 3.77691e-015 6.36111e-015 4.67144e-015 -4.47266e-015 0.014542 0.00366216 -0.00325632 -3.18055e-015 3.97569e-016 3.97569e-016 6.36111e-015 4.67144e-015 -4.47266e-015 3.18055e-015 3.77691e-015 -2.73329e-015 3.1511e-006 -3.18943e-008 5.2698e-008 -100.01 -34.7454 -106.102 -65.9737 81.213 74.7066 -38.071 28.2768 64.5451 -3.97569e-015 -3.18055e-015 1.59028e-015 100.029 -34.9964 105.898 65.8605 81.2505 -74.6059 37.7426 28.4069 -64.3321 2.97202e-007 -2.46437e-006 3.04867e-007 
-6.94875 14.6917 38.5456 180 81.9972 -180 -0.12001 -2.9774 -0.420845 -0.262484 -5.95384 -0.849669 -0.262484 -5.95385 -0.84967 -6.21543e-006 -34.8516 -8.1484e-006 4.92583e-007 -15.0017 1.65476e-008 -2.11682 -12.389 -38.6203 95.1436 -5.92791 9.64915 42.0112 -41.5361 24.8044 12.9849 -0.870833 10.7712 2.75869e-033 7.95139e-016 -1.98785e-016 3.18055e-015 7.95139e-016 1.39149e-015 -0 0 2.88238e-015 2.75869e-033 7.95139e-016 -1.98785e-016 -0.0127761 0.00231881 8.60031e-005 -2.75851e-006 -2.7925e-006 -2.60826e-006 2.75869e-033 7.95139e-016 -1.98785e-016 -0.0160014 0.00299244 0.0008552 -6.36111e-015 -3.97569e-016 9.93923e-017 2.75869e-033 7.95139e-016 -1.98785e-016 -0.0125373 0.00310446 0.00281087 -0 0 1.19271e-015 2.75869e-033 7.95139e-016 -1.98785e-016 3.18055e-015 7.95139e-016 1.39149e-015 -0 0 2.88238e-015 3.61558 3.11582 -1.50141 14.887 40.6153 2.08576 4.27939 -35.0523 0.745774 -11.2478 -21.164 -58.7885 -6.36111e-015 1.62241e-015 1.66269e-015 3.18055e-015 1.62245e-015 1.66267e-015 1.99437e-006 -6.48424e-007 -1.56607e-006 -6.36111e-015 1.62241e-015 1.66269e-015 0.0129295 0.00229994 -8.20577e-005 -1.16153e-006 -6.4878e-007 -1.56613e-006 -6.36111e-015 1.62241e-015 1.66269e-015 0.0163094 0.00303205 -0.000873518 -6.36111e-015 -1.9366e-015 -3.64665e-015 -6.36111e-015 1.62241e-015 1.66269e-015 0.0145504 0.00367454 -0.00324957 -1.16157e-006 -6.48673e-007 -1.566e-006 -6.36111e-015 1.62241e-015 1.66269e-015 3.18055e-015 1.62245e-015 1.66267e-015 1.99437e-006 -6.48424e-007 -1.56607e-006 -100.453 -35.1911 -106.365 -66.1063 81.2219 74.8383 -37.4553 28.6322 64.0809 9.02892e-007 2.51443e-006 -8.94142e-007 100.473 -35.4265 106.175 65.994 81.2595 -74.7384 37.1467 28.7534 -63.8815 -1.19569e-006 -7.19346e-009 -1.38762e-008 
